<svg width="800" height="200" viewBox="0 0 860 200" xmlns="http://www.w3.org/2000/svg">
  <g transform="translate(9, 50)" fill="#0A4D68">
    <!-- O -->
    <path transform="translate(0, 0)" d="M 20,0 H 60 L 72,8 L 80,20 V 80 L 72,92 L 60,100 H 20 L 8,92 L 0,80 V 20 L 8,8 Z M 60,20 H 20 V 80 H 60 Z" fill-rule="evenodd"/>
    <!-- C -->
    <path transform="translate(100, 0)" d="M 54,0 H 20 L 8,8 L 0,20 V 80 L 8,92 L 20,100 H 54 V 80 H 28 L 20,72 V 28 L 28,20 H 54 V 0 Z"/>
    <!-- E -->
    <path transform="translate(194, 0)" d="M 0,8 L 8,0 H 62 L 70,8 V 20 H 20 V 40 H 62 L 70,48 V 52 L 62,60 H 20 V 80 H 62 L 70,88 V 92 L 62,100 H 8 L 0,92 Z"/>
    <!-- A -->
    <path transform="translate(284, 0)" d="M 34,0 L 50,0 L 84,92 L 76,100 H 8 L 0,92 Z M 57,60 H 27 L 42,24 Z" fill-rule="evenodd"/>
    <!-- N -->
    <path transform="translate(388, 0)" d="M 0,8 L 8,0 H 20 V 75 L 54,0 H 72 L 80,8 V 92 L 72,100 H 60 V 25 L 26,100 H 8 L 0,92 Z"/>
    <!-- T -->
    <path transform="translate(488, 0)" d="M 0,8 L 8,0 H 62 L 70,8 V 20 H 45 V 92 L 37,100 H 33 L 25,92 V 20 H 0 Z"/>
    <!-- E -->
    <path transform="translate(578, 0)" d="M 0,8 L 8,0 H 62 L 70,8 V 20 H 20 V 40 H 62 L 70,48 V 52 L 62,60 H 20 V 80 H 62 L 70,88 V 92 L 62,100 H 8 L 0,92 Z"/>
    <!-- C -->
    <path transform="translate(668, 0)" d="M 54,0 H 20 L 8,8 L 0,20 V 80 L 8,92 L 20,100 H 54 V 80 H 28 L 20,72 V 28 L 28,20 H 54 V 0 Z"/>
    <!-- H -->
    <path transform="translate(762, 0)" d="M 0,8 L 8,0 H 20 V 40 H 60 V 0 H 72 L 80,8 V 92 L 72,100 H 60 V 60 H 20 V 100 H 8 L 0,92 Z"/>
  </g>
  <line x1="9" y1="160" x2="851" y2="160" stroke="#B87333" stroke-width="1"/>
</svg>